<svg class="animated" id="freepik_stories-credit-card-payment" xmlns="http://www.w3.org/2000/svg" xmlns:xlink="http://www.w3.org/1999/xlink" viewBox="0 0 500 500" version="1.1" xmlns:svgjs="http://svgjs.com/svgjs"><style>svg#freepik_stories-credit-card-payment:not(.animated) .animable {opacity: 0;}svg#freepik_stories-credit-card-payment.animated #freepik--Device--inject-7 {animation: 1s 1 forwards cubic-bezier(.36,-0.01,.5,1.38) slideRight,3s Infinite  linear shake;animation-delay: 0s,1s;}            @keyframes slideRight {                0% {                    opacity: 0;                    transform: translateX(30px);                }                100% {                    opacity: 1;                    transform: translateX(0);                }            }                    @keyframes shake {                10%, 90% {                    transform: translate3d(-1px, 0, 0);                  }                  20%, 80% {                    transform: translate3d(2px, 0, 0);                  }                  30%, 50%, 70% {                    transform: translate3d(-4px, 0, 0);                  }                  40%, 60% {                    transform: translate3d(4px, 0, 0);                  }            }        .animator-hidden { display: none; }</style><g id="freepik--Floor--inject-7" style="transform-origin: 251.85px 327.38px 0px;" class="animable animator-hidden"><ellipse id="freepik--floor--inject-7" cx="251.85" cy="327.38" rx="220.66" ry="120.67" style="fill: rgb(245, 245, 245); transform-origin: 251.85px 327.38px 0px;" class="animable"></ellipse></g><g id="freepik--Shadow--inject-7" style="transform-origin: 105.49px 359.87px 0px;" class="animable"><ellipse id="freepik--shadow--inject-7" cx="105.49" cy="359.87" rx="46.77" ry="27" style="fill: rgb(224, 224, 224); transform-origin: 105.49px 359.87px 0px;" class="animable"></ellipse></g><g id="freepik--Device--inject-7" style="transform-origin: 255.81px 223.877px 0px;" class="animable animator-active"><g id="freepik--device--inject-7" style="transform-origin: 255.81px 223.877px 0px;" class="animable"><path d="M48.13,127.6c4-2.11,9.43-1.7,15.41,1.76a37.34,37.34,0,0,1,7.8,6.14c8.45,8.52,14.45,21.39,14.45,32.41,0,14.21,10,31.47,22.27,38.58l22.27,12.85,94.91-54.78L203,151.7c-12.29-7.09-22.27-24.37-22.27-38.57s-10-31.46-22.27-38.56c-6-3.49-11.54-3.86-15.55-1.66v0l-.54.3L111.06,91.3l-5,2.85Z" style="fill: rgb(230, 230, 230); transform-origin: 136.685px 145.439px 0px;" id="elrn14jzjgl4s" class="animable"></path><path d="M329.47,204h0a.67.67,0,0,0-.74,0L326,205.59a2.28,2.28,0,0,0-1,1.77v32.07L440,304.68l4.53-34.29Z" style="fill: rgb(38, 50, 56); transform-origin: 384.765px 254.284px 0px;" id="ellzlq9x6q14h" class="animable"></path><path d="M444.48,270.35a.75.75,0,0,0-.69.1L441,272a1.93,1.93,0,0,0-.72.75L325.25,206.34a2.16,2.16,0,0,1,.72-.75l2.75-1.58a.67.67,0,0,1,.74,0h0Z" style="fill: rgb(69, 90, 100); transform-origin: 384.865px 238.324px 0px;" id="eld3e0zkol0hf" class="animable"></path><path d="M443.79,270.44,441,272a2.26,2.26,0,0,0-1,1.77v30.88l4.8,2.74V271C444.81,270.38,444.35,270.12,443.79,270.44Z" style="fill: rgb(55, 71, 79); transform-origin: 442.4px 288.846px 0px;" id="elnbanabht5he" class="animable"></path><polygon points="440.01 304.68 440.01 306.79 432.82 309.99 317.76 243.55 324.95 239.43 440.01 304.68" id="elhvi5aygoyfa" style="transform-origin: 378.885px 274.71px 0px;" class="animable"></polygon><path d="M435.22,314.15l8.57-5a2.25,2.25,0,0,0,1-1.77l-4.8-2.74a2.24,2.24,0,0,1-1,1.77L436.24,308c-.56.32-1,.06-1-.59Z" style="fill: rgb(55, 71, 79); transform-origin: 440.005px 309.395px 0px;" id="eliz7hm70f3zj" class="animable"></path><g id="freepik--Cards--inject-7" style="transform-origin: 393.204px 217.125px 0px;" class="animable"><path d="M461.69,310.81a4.15,4.15,0,0,0,1.8-3.26V203.78a4.24,4.24,0,0,0-1.92-3.33L328.45,123.59a3.61,3.61,0,0,0-5.53,3.19V230.55a4.25,4.25,0,0,0,1.93,3.33L458,310.74A4.14,4.14,0,0,0,461.69,310.81Z" style="fill: #A9C46C; transform-origin: 393.204px 217.123px 0px;" id="eln33wpz79inr" class="animable"></path><path d="M459.89,205.86V309.63c0,1.22-.86,1.72-1.92,1.11L324.85,233.88a4.25,4.25,0,0,1-1.93-3.33V126.78c0-1.22.87-1.72,1.93-1.11L458,202.53A4.24,4.24,0,0,1,459.89,205.86Z" style="fill: #A9C46C; transform-origin: 391.405px 218.205px 0px;" id="eld6pg4k6dxhc" class="animable"></path><g id="el5god4pc9w2h"><path d="M463.49,203.78V307.55a4.15,4.15,0,0,1-1.8,3.26,4.08,4.08,0,0,1-3.31.11c.86.28,1.51-.22,1.51-1.29V205.85a4,4,0,0,0-.56-1.89l3.59-2.08A3.91,3.91,0,0,1,463.49,203.78Z" style="opacity: 0.2; transform-origin: 460.935px 256.549px 0px;" class="animable" id="el64ss7pwpwtn"></path></g><path d="M449.07,232.91v16.37c0,1.23-.86,1.72-1.92,1.11L425.76,238a4.24,4.24,0,0,1-1.92-3.32V218.34c0-1.22.86-1.72,1.92-1.11l21.39,12.35A4.24,4.24,0,0,1,449.07,232.91Z" style="fill: rgb(69, 90, 100); transform-origin: 436.455px 233.811px 0px;" id="eljrq6vetwrmg" class="animable"></path><g style="clip-path: url(&quot;#freepik--clip-path--inject-7&quot;); transform-origin: 436.455px 233.83px 0px;" id="el68v8ikv5y28" class="animable"><g id="el8jpiwtp12ao"><rect x="436.02" y="210.92" width="0.87" height="37.46" style="fill: rgb(255, 255, 255); transform-origin: 436.455px 229.65px 0px; transform: rotate(-59.98deg);" class="animable" id="el2uo13rz3qui"></rect></g><rect x="441.43" y="232.77" width="0.87" height="8.34" style="fill: rgb(255, 255, 255); transform-origin: 441.865px 236.94px 0px;" id="elx9ligf8oaf8" class="animable"></rect><rect x="430.62" y="226.56" width="0.87" height="8.33" style="fill: rgb(255, 255, 255); transform-origin: 431.055px 230.725px 0px;" id="el22g3tcopqqt" class="animable"></rect><g id="elje2p92wo0w"><rect x="436.02" y="219.28" width="0.87" height="37.46" style="fill: rgb(255, 255, 255); transform-origin: 436.455px 238.01px 0px; transform: rotate(-59.98deg);" class="animable" id="elqvzuo3xdu"></rect></g></g><path d="M449.07,264.13V268c0,1.23-.86,1.72-1.92,1.11l-21.39-12.35a4.24,4.24,0,0,1-1.92-3.32v-3.89c0-1.23.86-1.72,1.92-1.11l21.39,12.35A4.24,4.24,0,0,1,449.07,264.13Z" style="fill: rgb(250, 250, 250); transform-origin: 436.455px 258.775px 0px;" id="elg0poyuhvyee" class="animable"></path><path d="M419,246.78v3.89c0,1.22-.86,1.72-1.92,1.11l-21.39-12.35a4.24,4.24,0,0,1-1.92-3.33v-3.88c0-1.23.86-1.73,1.92-1.11l21.39,12.35A4.24,4.24,0,0,1,419,246.78Z" style="fill: rgb(250, 250, 250); transform-origin: 406.385px 241.442px 0px;" id="elmaxa89eve6k" class="animable"></path><path d="M389,229.44v3.89c0,1.22-.86,1.72-1.92,1.11l-21.39-12.35a4.24,4.24,0,0,1-1.92-3.33v-3.89c0-1.22.86-1.72,1.92-1.11l21.39,12.35A4.26,4.26,0,0,1,389,229.44Z" style="fill: rgb(250, 250, 250); transform-origin: 376.385px 224.1px 0px;" id="elbm33eno9wn8" class="animable"></path><path d="M359,212.1V216c0,1.23-.86,1.73-1.92,1.11l-21.39-12.34a4.27,4.27,0,0,1-1.92-3.33v-3.89c0-1.22.86-1.72,1.92-1.11l21.39,12.35A4.24,4.24,0,0,1,359,212.1Z" style="fill: rgb(250, 250, 250); transform-origin: 346.385px 206.778px 0px;" id="elfh00mnhfrxr" class="animable"></path><g id="elpgujekpkdos"><path d="M345.7,216.79l4.91,2.83a2.57,2.57,0,0,1,1.15,2v1.5c0,.73-.52,1-1.15.66L345.7,221a2.56,2.56,0,0,1-1.15-2v-1.5C344.55,216.72,345.07,216.42,345.7,216.79Z" style="opacity: 0.15; transform-origin: 348.155px 220.279px 0px;" class="animable" id="eltbnr9hvvl3"></path></g><g id="elhpedfn8tbc"><path d="M334.89,210.55l4.9,2.83a2.55,2.55,0,0,1,1.16,2v1.5c0,.74-.52,1-1.16.67l-4.9-2.83a2.54,2.54,0,0,1-1.15-2v-1.5C333.74,210.48,334.25,210.18,334.89,210.55Z" style="opacity: 0.15; transform-origin: 337.345px 214.041px 0px;" class="animable" id="elh1axuf6g744"></path></g><g id="elntrv69ugfzo"><path d="M396.79,256.69l-61-35.24c-1.06-.61-1.92-.12-1.92,1.11v1.8a4.24,4.24,0,0,0,1.92,3.33l61,35.24c1.06.61,1.92.12,1.92-1.11V260A4.24,4.24,0,0,0,396.79,256.69Z" style="opacity: 0.15; transform-origin: 366.29px 242.19px 0px;" class="animable" id="elsmgm708cqs"></path></g><path d="M335.41,155.05a11.16,11.16,0,0,1-1.26-5.38c0-2,.41-3.34,1.23-3.94s2-.44,3.54.44a10.32,10.32,0,0,1,1.75,1.27,8,8,0,0,1,1.33,1.5.64.64,0,0,1,.13.36.38.38,0,0,1-.08.25l-.46.81c-.06.09-.12.12-.18.08a.8.8,0,0,1-.23-.23,6.62,6.62,0,0,0-2-1.79c-.91-.52-1.62-.58-2.12-.17s-.75,1.3-.75,2.68a7.64,7.64,0,0,0,.78,3.57,5.52,5.52,0,0,0,2.15,2.28,3.23,3.23,0,0,0,2.09.57.4.4,0,0,1,.23,0q.09,0,.18.3l.52,1.48a.93.93,0,0,1,.05.24c0,.07-.05.13-.16.17-.69.26-1.75,0-3.19-.85A9.24,9.24,0,0,1,335.41,155.05Z" style="fill: rgb(255, 255, 255); transform-origin: 338.229px 152.504px 0px;" id="eltmxydwava2" class="animable"></path><path d="M343.52,160.89a1.3,1.3,0,0,1-.14-.65V149.78c0-.25,0-.42.14-.5s.24-.05.45.07l3.35,1.93a6.36,6.36,0,0,1,3.35,5.86,3.7,3.7,0,0,1-.39,1.89,1.31,1.31,0,0,1-1.18.65l1.39,4.86a.93.93,0,0,1,0,.27c0,.21-.09.26-.28.15l-1.47-.84a1.06,1.06,0,0,1-.27-.22.85.85,0,0,1-.16-.37L347.13,159l-1.57-.91v3.46a.67.67,0,0,1-.13.49c-.09.08-.25,0-.47-.08l-1-.57A1.08,1.08,0,0,1,343.52,160.89Zm3.48-4.11c.5.29.88.36,1.13.23s.38-.52.38-1.13a3.09,3.09,0,0,0-.35-1.53,2.59,2.59,0,0,0-1-1l-1.57-.91v3.52Z" style="fill: rgb(255, 255, 255); transform-origin: 347.028px 157.126px 0px;" id="ellxvw6d8xw" class="animable"></path><path d="M351.9,165.73a1.3,1.3,0,0,1-.14-.65V154.62c0-.26,0-.42.14-.5s.24-.05.45.07l5.49,3.17a1.05,1.05,0,0,1,.44.42,1.43,1.43,0,0,1,.12.64v.65a.77.77,0,0,1-.12.52c-.08.07-.23,0-.44-.08l-3.9-2.25V160l2.72,1.58a1,1,0,0,1,.44.41,1.48,1.48,0,0,1,.12.65v.61a.77.77,0,0,1-.12.52c-.08.07-.22,0-.44-.08l-2.72-1.57V165l3.89,2.25a1,1,0,0,1,.43.42,1.51,1.51,0,0,1,.12.65v.64c0,.27,0,.44-.12.5s-.22,0-.43-.08l-5.48-3.16A1.08,1.08,0,0,1,351.9,165.73Z" style="fill: rgb(255, 255, 255); transform-origin: 355.082px 161.78px 0px;" id="elsflxq07gin" class="animable"></path><path d="M359.49,170.11a1.3,1.3,0,0,1-.14-.65V159c0-.25,0-.42.14-.5s.24-.05.45.07l2.78,1.61a8.93,8.93,0,0,1,3.44,3.43,10.69,10.69,0,0,1,1.17,5.22c0,2-.39,3.33-1.19,3.85s-1.93.34-3.42-.52l-2.78-1.6A1.08,1.08,0,0,1,359.49,170.11Zm3.33,0c.79.45,1.37.5,1.76.14s.58-1.24.58-2.65a7.68,7.68,0,0,0-.58-3.31,4.26,4.26,0,0,0-1.76-1.88l-1.29-.75v7.7Z" style="fill: rgb(255, 255, 255); transform-origin: 363.342px 165.713px 0px;" id="elbdqvwkk9v8v" class="animable"></path><path d="M368.56,175.35a1.34,1.34,0,0,1-.14-.66V164.24c0-.26,0-.42.14-.5s.24-.05.45.07l1,.57a1.2,1.2,0,0,1,.47.45,1.63,1.63,0,0,1,.13.67V176a.7.7,0,0,1-.13.5c-.09.07-.25.05-.47-.08l-1-.57A1.14,1.14,0,0,1,368.56,175.35Z" style="fill: rgb(255, 255, 255); transform-origin: 369.517px 170.118px 0px;" id="el0ftuhh0t37dd" class="animable"></path><path d="M374.28,178.65a1.39,1.39,0,0,1-.14-.65v-9.08L372,167.67a1,1,0,0,1-.43-.42,1.43,1.43,0,0,1-.12-.64V166a.77.77,0,0,1,.12-.52c.08-.07.22,0,.43.08l6.53,3.77a1.17,1.17,0,0,1,.45.43,1.56,1.56,0,0,1,.12.66V171c0,.26,0,.42-.12.49s-.24,0-.45-.08l-2.17-1.25v9.08c0,.26,0,.42-.13.49s-.25,0-.47-.09l-1-.56A1.16,1.16,0,0,1,374.28,178.65Z" style="fill: rgb(255, 255, 255); transform-origin: 375.272px 172.605px 0px;" id="elvw8eldbnjzs" class="animable"></path><path d="M385.65,184.05a11.15,11.15,0,0,1-1.26-5.37c0-2,.41-3.35,1.23-3.94s2-.45,3.54.44a10.27,10.27,0,0,1,1.75,1.26,8.73,8.73,0,0,1,1.33,1.5.66.66,0,0,1,.13.36.36.36,0,0,1-.08.25l-.46.81c-.06.1-.12.13-.19.09a1.09,1.09,0,0,1-.22-.24,6.64,6.64,0,0,0-2-1.78c-.9-.53-1.61-.58-2.11-.17s-.76,1.3-.76,2.67a7.66,7.66,0,0,0,.79,3.58,5.64,5.64,0,0,0,2.15,2.28,3.34,3.34,0,0,0,2.09.57.3.3,0,0,1,.22,0,.64.64,0,0,1,.19.3l.51,1.48a.69.69,0,0,1,.06.24c0,.07-.06.13-.16.18-.69.26-1.75,0-3.19-.86A9.18,9.18,0,0,1,385.65,184.05Z" style="fill: rgb(255, 255, 255); transform-origin: 388.474px 181.52px 0px;" id="elf4j3hotpbi" class="animable"></path><path d="M393,189.36a1.18,1.18,0,0,1,0-.25l3.43-8.9c.06-.17.13-.27.2-.3a.41.41,0,0,1,.33.07l1,.56a.85.85,0,0,1,.32.3,2.28,2.28,0,0,1,.2.53l3.42,12.85a1.25,1.25,0,0,1,0,.31c0,.2-.08.25-.24.16l-1.6-.93a.9.9,0,0,1-.27-.23,1.15,1.15,0,0,1-.15-.38l-.61-2.43-3.21-1.86-.6,1.74c0,.12-.09.18-.15.2a.36.36,0,0,1-.27-.07l-1.6-.93A.46.46,0,0,1,393,189.36Zm5.57-1L397.5,184l-1.11,3.17Z" style="fill: rgb(255, 255, 255); transform-origin: 397.452px 187.317px 0px;" id="elq4moj6wfz6" class="animable"></path><path d="M403.21,195.35a1.28,1.28,0,0,1-.14-.65V184.25c0-.26,0-.43.14-.5s.24-.06.45.07l3.35,1.93a6.32,6.32,0,0,1,3.36,5.85,3.69,3.69,0,0,1-.4,1.89,1.31,1.31,0,0,1-1.18.65l1.39,4.86a.93.93,0,0,1,0,.27c0,.21-.09.26-.28.16l-1.47-.85a.89.89,0,0,1-.27-.22A1,1,0,0,1,408,198l-1.22-4.58-1.57-.91V196a.71.71,0,0,1-.13.5c-.09.07-.25,0-.47-.09l-1-.57A1.08,1.08,0,0,1,403.21,195.35Zm3.48-4.11c.5.29.88.37,1.13.23s.38-.51.38-1.12a3.1,3.1,0,0,0-.35-1.54,2.59,2.59,0,0,0-1-1l-1.57-.91v3.53Z" style="fill: rgb(255, 255, 255); transform-origin: 406.722px 191.593px 0px;" id="elmt8h7q1uw7e" class="animable"></path><path d="M411.59,200.19a1.39,1.39,0,0,1-.14-.65V189.09a.69.69,0,0,1,.14-.51c.09-.07.24-.05.45.07l2.78,1.61a8.93,8.93,0,0,1,3.44,3.43,10.69,10.69,0,0,1,1.17,5.22c0,2.05-.39,3.33-1.19,3.85s-1.93.34-3.42-.52l-2.78-1.6A1.08,1.08,0,0,1,411.59,200.19Zm3.34,0c.78.45,1.37.5,1.75.14s.59-1.24.59-2.65a7.66,7.66,0,0,0-.59-3.31,4.24,4.24,0,0,0-1.75-1.88l-1.3-.75v7.7Z" style="fill: rgb(255, 255, 255); transform-origin: 415.44px 195.795px 0px;" id="elpvgm2zucweo" class="animable"></path><g id="elr7s1v73tmtf"><path d="M462.92,201.88,459.33,204a4,4,0,0,0-1.36-1.43L324.84,125.67c-1-.55-1.76-.19-1.9.8a3.59,3.59,0,0,1,5.51-2.88l133.12,76.86A3.81,3.81,0,0,1,462.92,201.88Z" style="fill: rgb(250, 250, 250); opacity: 0.5; transform-origin: 392.93px 163.516px 0px;" class="animable" id="elksjfdxr318e"></path></g></g><path d="M434.92,275.93l-11.38,6.19a3.53,3.53,0,0,0-.3,1.37v36.39a.82.82,0,0,0,.21.6l-115-66.37h0a.7.7,0,0,1-.3-.65V217.06a2.28,2.28,0,0,1,1-1.77l9.95-5.76a.66.66,0,0,1,.74-.05Z" style="fill: rgb(38, 50, 56); transform-origin: 371.533px 264.935px 0px;" id="elcw3yammmq7" class="animable"></path><g id="el4hw6bobjcee"><path d="M434.93,275.92,329.76,215.18l-4.8-2.77-5.07-2.93a.66.66,0,0,0-.74.05l-9.95,5.76a2,2,0,0,0-.71.76l115.06,66.06Z" style="fill: rgb(55, 71, 79); opacity: 0.5; transform-origin: 371.71px 245.75px 0px;" class="animable" id="eld57r6lwl7tm"></path></g><path d="M423.54,282.12a3.68,3.68,0,0,0-.31,1.39V319.9c0,.65.46.91,1,.59l11-6.34V276.59a.7.7,0,0,0-.3-.66Z" style="fill: rgb(55, 71, 79); transform-origin: 429.232px 298.278px 0px;" id="elbc7l51lbopc" class="animable"></path><path d="M424.36,320.39l.39-.19,1.69-1a11.45,11.45,0,0,0,2.53-7.17V281.28a9,9,0,0,0-.25-2l-.91.5a7.72,7.72,0,0,1,.16,1.48v30.77A13.32,13.32,0,0,1,424.36,320.39Z" style="fill: rgb(38, 50, 56); transform-origin: 426.665px 299.835px 0px;" id="elamualc3u41t" class="animable"></path><path d="M295.34,174.48c-3.88-3.14-10.94-7.21-15.28-9.71-7.3-4.23-34.59-20-46-26.59a11.29,11.29,0,0,0-10.22,0l-93,53.72a11.33,11.33,0,0,0-5.11,8.85V257a11.36,11.36,0,0,0,5.11,8.86L319.69,375a11.35,11.35,0,0,0,10.22,0l93-53.7A11.36,11.36,0,0,0,428,312.4V280.7a10,10,0,0,0-3.94-8C402.72,256.49,301.54,179.49,295.34,174.48Z" style="fill: rgb(69, 90, 100); transform-origin: 276.865px 256.586px 0px;" id="el9p0lpjnlhva" class="animable"></path><path d="M428,312.4V281.63a7.9,7.9,0,0,0-.22-1.84L324.54,339.3a9,9,0,0,1,.25,1.95V372c0,3-1.9,4.31-4.36,3.31l.07,0c.23.1.46.19.7.27l.46.14c.25.07.5.13.76.18s.34.06.51.09l.77.1.58,0,.73,0,.65,0,.66-.05c.24,0,.48-.08.72-.13l.56-.1c.26-.07.52-.16.77-.24s.3-.08.44-.14a7.53,7.53,0,0,0,.95-.45.61.61,0,0,0,.14-.07l93-53.7,1.34-.76A12.37,12.37,0,0,0,428,312.4Z" style="fill: rgb(55, 71, 79); transform-origin: 374.215px 327.94px 0px;" id="elzowpl5y8fab" class="animable"></path><path d="M192.12,234.09c17.44,14.08,108.52,83,128.7,98.26a10,10,0,0,1,4,8V372c0,3.25-2.3,4.58-5.11,3L130.79,265.9a11.36,11.36,0,0,1-5.11-8.86V200.75c0-3.25,2.3-4.58,5.11-2.95l46,26.56C181.16,226.87,188.22,230.94,192.12,234.09Z" style="fill: rgb(38, 50, 56); transform-origin: 225.25px 286.384px 0px;" id="elzw1vnec5ra" class="animable"></path><path d="M191.56,215.86c4.34,2.5,11.4,6.57,15.31,9.73a119.5,119.5,0,0,1,10.72,10,4.86,4.86,0,0,0,5.65.82l67.48-39a2.72,2.72,0,0,0,.64-4.45,120.36,120.36,0,0,0-10.75-10c-3.89-3.14-10.95-7.2-15.29-9.71-8.26-4.78-17.53-10.13-25.88-14.94a7,7,0,0,0-6.29,0L165.7,197.29c-1.73,1-1.73,2.63,0,3.63Z" style="fill: rgb(224, 224, 224); transform-origin: 228.323px 197.266px 0px;" id="elzvtkcunr15" class="animable"></path><path d="M233.15,161.53a7,7,0,0,1,6.29,0c8.35,4.81,17.62,10.16,25.88,14.94,4.34,2.51,11.4,6.58,15.29,9.72a120.19,120.19,0,0,1,10.75,10,3.12,3.12,0,0,1,.33.41,3.22,3.22,0,0,1-1,.85l-67.48,39a4.86,4.86,0,0,1-5.65-.82,119.5,119.5,0,0,0-10.72-10c-3.91-3.16-11-7.23-15.31-9.73L165.7,200.92c-.12-.07-.21-.15-.31-.22a2.44,2.44,0,0,1,.31-.22Z" style="fill: rgb(255, 255, 255); transform-origin: 228.54px 198.896px 0px;" id="elwinzuv8aoj9" class="animable"></path><polygon points="234.26 212.95 214.07 212.64 214.07 204.58 228.53 207.2 228.34 175.17 240.91 174.97 234.26 212.95" style="fill: #A9C46C; transform-origin: 227.49px 193.96px 0px;" id="elrq7o4zga2q" class="animable"></polygon><path d="M292.73,213.82h0l.67-2.78,2.8-.23,9.15-5.28c4.34-2.5,10.09-2,12.89,1.11a5.67,5.67,0,0,1,1.27,2.27l.79-.07-.71,2.95h0a8.18,8.18,0,0,1-4.05,4.9l-11.14,6.42a4.82,4.82,0,0,1-5.65-.81c-1.76-1.88-3.52-3.83-5.28-5.81A2.92,2.92,0,0,1,292.73,213.82Z" style="fill: #A9C46C; transform-origin: 306.479px 213.809px 0px;" id="el1saa6dr190r" class="animable"></path><g id="el4tctp3cxxom"><path d="M292.73,213.82h0l.67-2.78,2.8-.23,9.15-5.28c4.34-2.5,10.09-2,12.89,1.11a5.67,5.67,0,0,1,1.27,2.27l.79-.07-.71,2.95h0a8.18,8.18,0,0,1-4.05,4.9l-11.14,6.42a4.82,4.82,0,0,1-5.65-.81c-1.76-1.88-3.52-3.83-5.28-5.81A2.92,2.92,0,0,1,292.73,213.82Z" style="opacity: 0.1; transform-origin: 306.479px 213.809px 0px;" class="animable" id="eler33dm5czpm"></path></g><path d="M305,220.34l11.14-6.43c4.35-2.51,5.51-7,2.71-10.06s-8.55-3.61-12.89-1.11l-11.14,6.43a2.85,2.85,0,0,0-.75,4.54q2.64,3,5.29,5.81A4.81,4.81,0,0,0,305,220.34Z" style="fill: #A9C46C; transform-origin: 306.813px 211.035px 0px;" id="el2lk91q0jeub" class="animable"></path><path d="M235.76,248.48l0,0,.68-2.82.79-.07a9.75,9.75,0,0,1,2.7-2.25l11.14-6.43a4.65,4.65,0,0,1,5.56.9c1.73,1.95,3.46,3.87,5.19,5.73l1.57-.13-.71,2.93h0a2.94,2.94,0,0,1-1.4,1.72l-11.14,6.43c-4.35,2.51-10.22,2.11-13-1A5.48,5.48,0,0,1,235.76,248.48Z" style="fill: #A9C46C; transform-origin: 249.506px 246.246px 0px;" id="elh4wtb8zk89s" class="animable"></path><g id="eltjzhv633qs"><path d="M235.76,248.48l0,0,.68-2.82.79-.07a9.75,9.75,0,0,1,2.7-2.25l11.14-6.43a4.65,4.65,0,0,1,5.56.9c1.73,1.95,3.46,3.87,5.19,5.73l1.57-.13-.71,2.93h0a2.94,2.94,0,0,1-1.4,1.72l-11.14,6.43c-4.35,2.51-10.22,2.11-13-1A5.48,5.48,0,0,1,235.76,248.48Z" style="opacity: 0.1; transform-origin: 249.506px 246.246px 0px;" class="animable" id="eld5hhrpcfv7"></path></g><path d="M250.77,251.69l11.14-6.43a2.73,2.73,0,0,0,.64-4.45c-1.76-1.89-3.51-3.83-5.27-5.81a4.65,4.65,0,0,0-5.56-.91l-11.14,6.43c-4.34,2.51-5.65,7.09-2.84,10.18S246.43,254.19,250.77,251.69Z" style="fill: #A9C46C; transform-origin: 249.841px 243.435px 0px;" id="el6g89tqxukja" class="animable"></path><path d="M263.64,230.88h0l.66-2.75,2.14-.14,13.33-7.7a5.82,5.82,0,0,1,6.95,1.13q2,2.28,4.05,4.47a3.91,3.91,0,0,1,.36.47l1.33-.08-.69,2.87,0,0a3.6,3.6,0,0,1-1.78,2.29l-14.29,8.24a6,6,0,0,1-7.05-1c-1.35-1.46-2.71-2.95-4.06-4.47A3.66,3.66,0,0,1,263.64,230.88Z" style="fill: #A9C46C; transform-origin: 278.008px 230.004px 0px;" id="elp5bgq0v3ax9" class="animable"></path><g id="elm89wvcw96m"><path d="M263.64,230.88h0l.66-2.75,2.14-.14,13.33-7.7a5.82,5.82,0,0,1,6.95,1.13q2,2.28,4.05,4.47a3.91,3.91,0,0,1,.36.47l1.33-.08-.69,2.87,0,0a3.6,3.6,0,0,1-1.78,2.29l-14.29,8.24a6,6,0,0,1-7.05-1c-1.35-1.46-2.71-2.95-4.06-4.47A3.66,3.66,0,0,1,263.64,230.88Z" style="opacity: 0.1; transform-origin: 278.008px 230.004px 0px;" class="animable" id="elbt3bou847u"></path></g><path d="M265.22,231.42c1.35,1.52,2.71,3,4.06,4.47a6,6,0,0,0,7.05,1l14.29-8.24a3.42,3.42,0,0,0,.81-5.56c-1.35-1.46-2.7-3-4.05-4.48a5.81,5.81,0,0,0-6.95-1.12l-14.28,8.24A3.56,3.56,0,0,0,265.22,231.42Z" style="fill: #A9C46C; transform-origin: 278.351px 227.206px 0px;" id="elxv39tg8dki" class="animable"></path><g id="elryn2e170cv"><g style="opacity: 0.75; transform-origin: 278.313px 227.244px 0px;" class="animable" id="elefq4nvcaytb"><path d="M305,220.34l11.14-6.43c4.35-2.51,5.51-7,2.71-10.06s-8.55-3.61-12.89-1.11l-11.14,6.43a2.85,2.85,0,0,0-.75,4.54q2.64,3,5.29,5.81A4.81,4.81,0,0,0,305,220.34Z" style="fill: rgb(255, 255, 255); transform-origin: 306.813px 211.035px 0px;" id="el5ot39btbt7a" class="animable"></path><path d="M250.77,251.69l11.14-6.43a2.73,2.73,0,0,0,.64-4.45c-1.76-1.89-3.51-3.83-5.27-5.81a4.65,4.65,0,0,0-5.56-.91l-11.14,6.43c-4.34,2.51-5.65,7.09-2.84,10.18S246.43,254.19,250.77,251.69Z" style="fill: rgb(255, 255, 255); transform-origin: 249.841px 243.435px 0px;" id="el5plcew12npu" class="animable"></path><path d="M265.22,231.42c1.35,1.52,2.71,3,4.06,4.47a6,6,0,0,0,7.05,1l14.29-8.24a3.42,3.42,0,0,0,.81-5.56c-1.35-1.46-2.7-3-4.05-4.48a5.81,5.81,0,0,0-6.95-1.12l-14.28,8.24A3.56,3.56,0,0,0,265.22,231.42Z" style="fill: rgb(255, 255, 255); transform-origin: 278.351px 227.206px 0px;" id="elb8q3rnvvglg" class="animable"></path></g></g><path d="M286.89,262.28l-2.94.07-8.23-6.28a4.87,4.87,0,0,0-5-.32L258.14,263l-3.95.1v3.22h0a2.09,2.09,0,0,0,.92,1.62l10.24,7.82a4.89,4.89,0,0,0,5,.32l15.39-8.88a2,2,0,0,0,1.14-1.7h0Z" style="fill: #A9C46C; transform-origin: 270.54px 265.913px 0px;" id="elotalf1a4n6" class="animable"></path><g id="el0cq4uzv19l5v"><path d="M286.89,262.28l-2.94.07-8.23-6.28a4.87,4.87,0,0,0-5-.32L258.14,263l-3.95.1v3.22h0a2.09,2.09,0,0,0,.92,1.62l10.24,7.82a4.89,4.89,0,0,0,5,.32l15.39-8.88a2,2,0,0,0,1.14-1.7h0Z" style="opacity: 0.1; transform-origin: 270.54px 265.913px 0px;" class="animable" id="el58jpuo44o07"></path></g><path d="M255.33,261.4l15.4-8.87a4.87,4.87,0,0,1,5,.32L286,260.67a1.84,1.84,0,0,1-.22,3.31l-15.39,8.88a4.89,4.89,0,0,1-5-.32l-10.24-7.82A1.86,1.86,0,0,1,255.33,261.4Z" style="fill: #A9C46C; transform-origin: 270.574px 262.693px 0px;" id="el132aa6jjjjx" class="animable"></path><g id="elsfgqoshaaw"><path d="M255.33,261.4l15.4-8.87a4.87,4.87,0,0,1,5,.32L286,260.67a1.84,1.84,0,0,1-.22,3.31l-15.39,8.88a4.89,4.89,0,0,1-5-.32l-10.24-7.82A1.86,1.86,0,0,1,255.33,261.4Z" style="fill: rgb(255, 255, 255); opacity: 0.75; transform-origin: 270.574px 262.693px 0px;" class="animable" id="eljg0yxeymbes"></path></g><path d="M347,308.11l-2.94.08-8.23-6.29a4.89,4.89,0,0,0-5-.32l-12.59,7.26-3.95.09v3.22h0a2.06,2.06,0,0,0,.92,1.62l10.24,7.82a4.87,4.87,0,0,0,5,.32L345.8,313a2,2,0,0,0,1.13-1.71h0Z" style="fill: #A9C46C; transform-origin: 330.645px 311.747px 0px;" id="elezj7fwki9f8" class="animable"></path><g id="elby61fnfs3g6"><path d="M347,308.11l-2.94.08-8.23-6.29a4.89,4.89,0,0,0-5-.32l-12.59,7.26-3.95.09v3.22h0a2.06,2.06,0,0,0,.92,1.62l10.24,7.82a4.87,4.87,0,0,0,5,.32L345.8,313a2,2,0,0,0,1.13-1.71h0Z" style="opacity: 0.1; transform-origin: 330.645px 311.747px 0px;" class="animable" id="elbado3jmt26n"></path></g><path d="M315.39,307.23l15.4-8.87a4.89,4.89,0,0,1,5,.32L346,306.5a1.85,1.85,0,0,1-.22,3.32l-15.4,8.87a4.87,4.87,0,0,1-5-.32l-10.24-7.82A1.86,1.86,0,0,1,315.39,307.23Z" style="fill: #A9C46C; transform-origin: 330.583px 308.527px 0px;" id="elxmfd1p0x8s" class="animable"></path><g id="eldpupf7m6ha5"><path d="M315.39,307.23l15.4-8.87a4.89,4.89,0,0,1,5,.32L346,306.5a1.85,1.85,0,0,1-.22,3.32l-15.4,8.87a4.87,4.87,0,0,1-5-.32l-10.24-7.82A1.86,1.86,0,0,1,315.39,307.23Z" style="fill: rgb(255, 255, 255); opacity: 0.75; transform-origin: 330.583px 308.527px 0px;" class="animable" id="elvann0la6fvf"></path></g><path d="M306.91,277.56l-2.94.07-8.23-6.28a4.89,4.89,0,0,0-5-.33l-12.59,7.26-4,.1v3.22h0a2.11,2.11,0,0,0,.92,1.62L285.38,291a4.89,4.89,0,0,0,5,.33l15.39-8.88a2,2,0,0,0,1.14-1.7h0Z" style="fill: #A9C46C; transform-origin: 290.53px 281.175px 0px;" id="el14rxcvn6em" class="animable"></path><g id="elv0u83hg1goe"><path d="M306.91,277.56l-2.94.07-8.23-6.28a4.89,4.89,0,0,0-5-.33l-12.59,7.26-4,.1v3.22h0a2.11,2.11,0,0,0,.92,1.62L285.38,291a4.89,4.89,0,0,0,5,.33l15.39-8.88a2,2,0,0,0,1.14-1.7h0Z" style="opacity: 0.1; transform-origin: 290.53px 281.175px 0px;" class="animable" id="elgbvercwigqq"></path></g><path d="M275.35,276.68l15.4-8.88a4.89,4.89,0,0,1,5,.33L306,275.94a1.85,1.85,0,0,1-.22,3.32l-15.39,8.88a4.89,4.89,0,0,1-5-.33L275.14,280A1.86,1.86,0,0,1,275.35,276.68Z" style="fill: #A9C46C; transform-origin: 290.574px 277.97px 0px;" id="el281twarhodg" class="animable"></path><g id="el1jq5mv17nl8i"><path d="M275.35,276.68l15.4-8.88a4.89,4.89,0,0,1,5,.33L306,275.94a1.85,1.85,0,0,1-.22,3.32l-15.39,8.88a4.89,4.89,0,0,1-5-.33L275.14,280A1.86,1.86,0,0,1,275.35,276.68Z" style="fill: rgb(255, 255, 255); opacity: 0.75; transform-origin: 290.574px 277.97px 0px;" class="animable" id="elu1b5adtgdze"></path></g><path d="M326.93,292.83l-2.94.08-8.23-6.29a4.89,4.89,0,0,0-5-.32l-12.59,7.26-3.95.1v3.22h0a2.06,2.06,0,0,0,.92,1.61l10.24,7.82a4.87,4.87,0,0,0,5,.32l15.39-8.87a2,2,0,0,0,1.13-1.71h0Z" style="fill: #A9C46C; transform-origin: 310.575px 296.467px 0px;" id="elfhm93olhvn" class="animable"></path><g id="ela9t6fnwgb95"><path d="M326.93,292.83l-2.94.08-8.23-6.29a4.89,4.89,0,0,0-5-.32l-12.59,7.26-3.95.1v3.22h0a2.06,2.06,0,0,0,.92,1.61l10.24,7.82a4.87,4.87,0,0,0,5,.32l15.39-8.87a2,2,0,0,0,1.13-1.71h0Z" style="opacity: 0.1; transform-origin: 310.575px 296.467px 0px;" class="animable" id="eln3nlk26wcz"></path></g><path d="M295.37,292l15.4-8.88a4.89,4.89,0,0,1,5,.32L326,291.22a1.85,1.85,0,0,1-.22,3.32l-15.39,8.87a4.87,4.87,0,0,1-5-.32l-10.24-7.82A1.85,1.85,0,0,1,295.37,292Z" style="fill: #A9C46C; transform-origin: 310.6px 293.267px 0px;" id="elz73wf941x8o" class="animable"></path><g id="elc6pfaq594bp"><path d="M295.37,292l15.4-8.88a4.89,4.89,0,0,1,5,.32L326,291.22a1.85,1.85,0,0,1-.22,3.32l-15.39,8.87a4.87,4.87,0,0,1-5-.32l-10.24-7.82A1.85,1.85,0,0,1,295.37,292Z" style="fill: rgb(255, 255, 255); opacity: 0.75; transform-origin: 310.6px 293.267px 0px;" class="animable" id="elc0qb7ocalda"></path></g><path d="M317.79,244.47l-2.94.08-8.23-6.29a4.89,4.89,0,0,0-5-.32L289,245.2l-4,.1v3.22h0a2.09,2.09,0,0,0,.92,1.61L296.26,258a4.87,4.87,0,0,0,5,.32l15.4-8.87a2,2,0,0,0,1.13-1.71h0Z" style="fill: #A9C46C; transform-origin: 301.395px 248.132px 0px;" id="ell21d3i81owj" class="animable"></path><g id="el5bjvca069x9"><path d="M317.79,244.47l-2.94.08-8.23-6.29a4.89,4.89,0,0,0-5-.32L289,245.2l-4,.1v3.22h0a2.09,2.09,0,0,0,.92,1.61L296.26,258a4.87,4.87,0,0,0,5,.32l15.4-8.87a2,2,0,0,0,1.13-1.71h0Z" style="opacity: 0.1; transform-origin: 301.395px 248.132px 0px;" class="animable" id="el7khyoufxqab"></path></g><path d="M286.23,243.6l15.4-8.88a4.89,4.89,0,0,1,5,.32l10.24,7.82a1.86,1.86,0,0,1-.21,3.32l-15.4,8.87a4.87,4.87,0,0,1-5-.32L286,246.91A1.85,1.85,0,0,1,286.23,243.6Z" style="fill: #A9C46C; transform-origin: 301.438px 244.887px 0px;" id="elteworffan5" class="animable"></path><g id="eltmhqc8a8sy"><path d="M286.23,243.6l15.4-8.88a4.89,4.89,0,0,1,5,.32l10.24,7.82a1.86,1.86,0,0,1-.21,3.32l-15.4,8.87a4.87,4.87,0,0,1-5-.32L286,246.91A1.85,1.85,0,0,1,286.23,243.6Z" style="fill: rgb(255, 255, 255); opacity: 0.75; transform-origin: 301.438px 244.887px 0px;" class="animable" id="el9x41ifuhfe6"></path></g><path d="M377.85,290.31l-2.94.07-8.23-6.29a4.91,4.91,0,0,0-5-.32L349.1,291l-4,.1v3.22h0a2.09,2.09,0,0,0,.92,1.62l10.24,7.81a4.89,4.89,0,0,0,5,.33l15.39-8.88a2,2,0,0,0,1.13-1.71h0Z" style="fill: #A9C46C; transform-origin: 361.475px 293.924px 0px;" id="el5ir73mq5sa4" class="animable"></path><g id="elfbga6vyuafp"><path d="M377.85,290.31l-2.94.07-8.23-6.29a4.91,4.91,0,0,0-5-.32L349.1,291l-4,.1v3.22h0a2.09,2.09,0,0,0,.92,1.62l10.24,7.81a4.89,4.89,0,0,0,5,.33l15.39-8.88a2,2,0,0,0,1.13-1.71h0Z" style="opacity: 0.1; transform-origin: 361.475px 293.924px 0px;" class="animable" id="els5scvm3oos"></path></g><path d="M346.29,289.43l15.4-8.88a4.89,4.89,0,0,1,5,.33l10.24,7.81a1.85,1.85,0,0,1-.22,3.32l-15.39,8.88a4.89,4.89,0,0,1-5-.33l-10.24-7.81A1.86,1.86,0,0,1,346.29,289.43Z" style="fill: #A9C46C; transform-origin: 361.509px 290.72px 0px;" id="el52zwasrfsm5" class="animable"></path><g id="eldqo0houkkrt"><path d="M346.29,289.43l15.4-8.88a4.89,4.89,0,0,1,5,.33l10.24,7.81a1.85,1.85,0,0,1-.22,3.32l-15.39,8.88a4.89,4.89,0,0,1-5-.33l-10.24-7.81A1.86,1.86,0,0,1,346.29,289.43Z" style="fill: rgb(255, 255, 255); opacity: 0.75; transform-origin: 361.509px 290.72px 0px;" class="animable" id="el0swj4azyna4a"></path></g><path d="M337.81,259.75l-2.94.08-8.23-6.29a4.87,4.87,0,0,0-5-.32l-12.59,7.25-3.95.1v3.22h0a2.09,2.09,0,0,0,.92,1.62l10.24,7.82a4.89,4.89,0,0,0,5,.32l15.4-8.87A2,2,0,0,0,337.8,263h0Z" style="fill: #A9C46C; transform-origin: 321.455px 263.383px 0px;" id="ely2djcx289n" class="animable"></path><g id="el6rix0jm29ql"><path d="M337.81,259.75l-2.94.08-8.23-6.29a4.87,4.87,0,0,0-5-.32l-12.59,7.25-3.95.1v3.22h0a2.09,2.09,0,0,0,.92,1.62l10.24,7.82a4.89,4.89,0,0,0,5,.32l15.4-8.87A2,2,0,0,0,337.8,263h0Z" style="opacity: 0.1; transform-origin: 321.455px 263.383px 0px;" class="animable" id="elbcv6hs6xiop"></path></g><path d="M306.25,258.87l15.4-8.87a4.89,4.89,0,0,1,5,.32l10.24,7.82a1.86,1.86,0,0,1-.21,3.32l-15.4,8.87a4.89,4.89,0,0,1-5-.32L306,262.19A1.86,1.86,0,0,1,306.25,258.87Z" style="fill: #A9C46C; transform-origin: 321.453px 260.165px 0px;" id="elu6rj0g4i0t" class="animable"></path><g id="elet1wt2upguu"><path d="M306.25,258.87l15.4-8.87a4.89,4.89,0,0,1,5,.32l10.24,7.82a1.86,1.86,0,0,1-.21,3.32l-15.4,8.87a4.89,4.89,0,0,1-5-.32L306,262.19A1.86,1.86,0,0,1,306.25,258.87Z" style="fill: rgb(255, 255, 255); opacity: 0.75; transform-origin: 321.453px 260.165px 0px;" class="animable" id="elne2805heja"></path></g><path d="M357.83,275l-2.94.07-8.23-6.28a4.87,4.87,0,0,0-5-.32l-12.59,7.25-3.95.1v3.22h0a2.09,2.09,0,0,0,.92,1.62l10.24,7.82a4.91,4.91,0,0,0,5,.32L356.68,280a2,2,0,0,0,1.14-1.7h0Z" style="fill: #A9C46C; transform-origin: 341.475px 278.632px 0px;" id="elcqti600xaqf" class="animable"></path><g id="el33i81hg0xzo"><path d="M357.83,275l-2.94.07-8.23-6.28a4.87,4.87,0,0,0-5-.32l-12.59,7.25-3.95.1v3.22h0a2.09,2.09,0,0,0,.92,1.62l10.24,7.82a4.91,4.91,0,0,0,5,.32L356.68,280a2,2,0,0,0,1.14-1.7h0Z" style="opacity: 0.1; transform-origin: 341.475px 278.632px 0px;" class="animable" id="elfbv2z2znxf"></path></g><path d="M326.27,274.15l15.4-8.87a4.87,4.87,0,0,1,5,.32l10.24,7.82a1.84,1.84,0,0,1-.22,3.31l-15.39,8.88a4.89,4.89,0,0,1-5-.32l-10.24-7.82A1.86,1.86,0,0,1,326.27,274.15Z" style="fill: #A9C46C; transform-origin: 341.49px 275.443px 0px;" id="el590wxr33kbk" class="animable"></path><g id="elaz4g2ish8e6"><path d="M326.27,274.15l15.4-8.87a4.87,4.87,0,0,1,5,.32l10.24,7.82a1.84,1.84,0,0,1-.22,3.31l-15.39,8.88a4.89,4.89,0,0,1-5-.32l-10.24-7.82A1.86,1.86,0,0,1,326.27,274.15Z" style="fill: rgb(255, 255, 255); opacity: 0.75; transform-origin: 341.49px 275.443px 0px;" class="animable" id="elche8vntvbtr"></path></g><path d="M348.68,226.66l-2.94.07-8.23-6.28a4.87,4.87,0,0,0-5-.32l-12.59,7.25-3.95.1v3.22h0a2.09,2.09,0,0,0,.92,1.62l10.24,7.82a4.89,4.89,0,0,0,5,.32l15.39-8.88a2,2,0,0,0,1.14-1.7h0Z" style="fill: #A9C46C; transform-origin: 332.325px 230.293px 0px;" id="elvia1i5hqwva" class="animable"></path><g id="el18lqx6ld4w6"><path d="M348.68,226.66l-2.94.07-8.23-6.28a4.87,4.87,0,0,0-5-.32l-12.59,7.25-3.95.1v3.22h0a2.09,2.09,0,0,0,.92,1.62l10.24,7.82a4.89,4.89,0,0,0,5,.32l15.39-8.88a2,2,0,0,0,1.14-1.7h0Z" style="opacity: 0.1; transform-origin: 332.325px 230.293px 0px;" class="animable" id="elf5ichkxj34j"></path></g><path d="M317.12,225.78l15.4-8.87a4.87,4.87,0,0,1,5,.32l10.24,7.82a1.84,1.84,0,0,1-.22,3.31l-15.39,8.88a4.89,4.89,0,0,1-5-.32l-10.24-7.82A1.86,1.86,0,0,1,317.12,225.78Z" style="fill: #A9C46C; transform-origin: 332.34px 227.073px 0px;" id="ellnanj4juikn" class="animable"></path><g id="elqm2sz1d129"><path d="M317.12,225.78l15.4-8.87a4.87,4.87,0,0,1,5,.32l10.24,7.82a1.84,1.84,0,0,1-.22,3.31l-15.39,8.88a4.89,4.89,0,0,1-5-.32l-10.24-7.82A1.86,1.86,0,0,1,317.12,225.78Z" style="fill: rgb(255, 255, 255); opacity: 0.75; transform-origin: 332.34px 227.073px 0px;" class="animable" id="el29ed9suvbgx"></path></g><path d="M408.74,272.49l-2.94.08-8.23-6.29a4.87,4.87,0,0,0-5-.32L380,273.21l-3.95.1v3.22h0a2.06,2.06,0,0,0,.92,1.62L387.21,286a4.87,4.87,0,0,0,5,.32l15.4-8.87a2,2,0,0,0,1.13-1.71h0Z" style="fill: #A9C46C; transform-origin: 392.395px 276.14px 0px;" id="elknglku7pvak" class="animable"></path><g id="el7am08ng0tih"><path d="M408.74,272.49l-2.94.08-8.23-6.29a4.87,4.87,0,0,0-5-.32L380,273.21l-3.95.1v3.22h0a2.06,2.06,0,0,0,.92,1.62L387.21,286a4.87,4.87,0,0,0,5,.32l15.4-8.87a2,2,0,0,0,1.13-1.71h0Z" style="opacity: 0.1; transform-origin: 392.395px 276.14px 0px;" class="animable" id="el4m7qpe2rphe"></path></g><path d="M377.18,271.61l15.4-8.87a4.89,4.89,0,0,1,5,.32l10.24,7.82a1.85,1.85,0,0,1-.22,3.32l-15.4,8.87a4.87,4.87,0,0,1-5-.32L377,274.93A1.86,1.86,0,0,1,377.18,271.61Z" style="fill: #A9C46C; transform-origin: 392.408px 272.907px 0px;" id="elbxuqrt4vnq" class="animable"></path><g id="el93pr1nw09r"><path d="M377.18,271.61l15.4-8.87a4.89,4.89,0,0,1,5,.32l10.24,7.82a1.85,1.85,0,0,1-.22,3.32l-15.4,8.87a4.87,4.87,0,0,1-5-.32L377,274.93A1.86,1.86,0,0,1,377.18,271.61Z" style="fill: rgb(255, 255, 255); opacity: 0.75; transform-origin: 392.408px 272.907px 0px;" class="animable" id="eld0cdg20o2du"></path></g><path d="M388.72,257.21l-2.94.08L377.55,251a4.89,4.89,0,0,0-5-.32L360,257.94l-4,.1v3.22h0a2.06,2.06,0,0,0,.92,1.61l10.24,7.82a4.85,4.85,0,0,0,5,.32l15.4-8.87a2,2,0,0,0,1.13-1.71h0Z" style="fill: #A9C46C; transform-origin: 372.36px 260.848px 0px;" id="el703ufn3vq0o" class="animable"></path><g id="elweadk79gny"><path d="M388.72,257.21l-2.94.08L377.55,251a4.89,4.89,0,0,0-5-.32L360,257.94l-4,.1v3.22h0a2.06,2.06,0,0,0,.92,1.61l10.24,7.82a4.85,4.85,0,0,0,5,.32l15.4-8.87a2,2,0,0,0,1.13-1.71h0Z" style="opacity: 0.1; transform-origin: 372.36px 260.848px 0px;" class="animable" id="elisvr5lqwutn"></path></g><path d="M357.16,256.34l15.4-8.88a4.89,4.89,0,0,1,5,.32l10.24,7.82a1.85,1.85,0,0,1-.22,3.32l-15.4,8.87a4.85,4.85,0,0,1-5-.32L357,259.65A1.85,1.85,0,0,1,357.16,256.34Z" style="fill: #A9C46C; transform-origin: 372.392px 257.628px 0px;" id="el9wogzdmkx4e" class="animable"></path><g id="el6olr2ntpwpn"><path d="M357.16,256.34l15.4-8.88a4.89,4.89,0,0,1,5,.32l10.24,7.82a1.85,1.85,0,0,1-.22,3.32l-15.4,8.87a4.85,4.85,0,0,1-5-.32L357,259.65A1.85,1.85,0,0,1,357.16,256.34Z" style="fill: rgb(255, 255, 255); opacity: 0.75; transform-origin: 372.392px 257.628px 0px;" class="animable" id="elt63tj8355g"></path></g><path d="M368.7,241.94l-2.94.07-8.23-6.28a4.89,4.89,0,0,0-5-.33L340,242.66l-3.95.1V246h0a2.08,2.08,0,0,0,.92,1.62l10.24,7.81a4.89,4.89,0,0,0,5,.33l15.39-8.88a2,2,0,0,0,1.13-1.7h0Z" style="fill: #A9C46C; transform-origin: 352.39px 245.58px 0px;" id="elz34b3ldk22" class="animable"></path><g id="elnkk3qd6lved"><path d="M368.7,241.94l-2.94.07-8.23-6.28a4.89,4.89,0,0,0-5-.33L340,242.66l-3.95.1V246h0a2.08,2.08,0,0,0,.92,1.62l10.24,7.81a4.89,4.89,0,0,0,5,.33l15.39-8.88a2,2,0,0,0,1.13-1.7h0Z" style="opacity: 0.1; transform-origin: 352.39px 245.58px 0px;" class="animable" id="elz02bbwpkwd"></path></g><path d="M337.14,241.06l15.4-8.88a4.89,4.89,0,0,1,5,.33l10.24,7.81a1.85,1.85,0,0,1-.22,3.32l-15.39,8.88a4.89,4.89,0,0,1-5-.33l-10.24-7.81A1.86,1.86,0,0,1,337.14,241.06Z" style="fill: #A9C46C; transform-origin: 352.359px 242.35px 0px;" id="el46e2gn8fzy" class="animable"></path><g id="elut32ete2fsg"><path d="M337.14,241.06l15.4-8.88a4.89,4.89,0,0,1,5,.33l10.24,7.81a1.85,1.85,0,0,1-.22,3.32l-15.39,8.88a4.89,4.89,0,0,1-5-.33l-10.24-7.81A1.86,1.86,0,0,1,337.14,241.06Z" style="fill: rgb(255, 255, 255); opacity: 0.75; transform-origin: 352.359px 242.35px 0px;" class="animable" id="elc91qtg1c03r"></path></g></g></g><g id="freepik--Character--inject-7" style="transform-origin: 114.795px 229.278px 0px;" class="animable"><g id="freepik--character--inject-7" style="transform-origin: 114.795px 229.278px 0px;" class="animable"><path d="M120.66,147.44h0V136.35A10.39,10.39,0,0,0,110.27,126h0v11.09A10.39,10.39,0,0,0,120.66,147.44Z" style="fill: rgb(38, 50, 56); transform-origin: 115.465px 136.72px 0px;" id="eltpf8pfuucx" class="animable"></path><polygon points="154.46 238.48 121.25 221.61 124.25 277.41 157.46 294.28 154.46 238.48" style="fill: #A9C46C; transform-origin: 139.355px 257.945px 0px;" id="el41m8cbhpjut" class="animable"></polygon><g id="elsmp7ajgsym"><polygon points="154.46 238.48 121.25 221.61 124.25 277.41 157.46 294.28 154.46 238.48" style="fill: rgb(255, 255, 255); opacity: 0.5; transform-origin: 139.355px 257.945px 0px;" class="animable" id="elripgkrrr92"></polygon></g><polygon points="157.46 294.28 173.07 284.12 160.71 234.42 154.46 238.48 157.46 294.28" style="fill: #A9C46C; transform-origin: 163.765px 264.35px 0px;" id="el3m1otp4ifrz" class="animable"></polygon><polygon points="173.07 284.12 162.47 283.32 157.46 294.28 173.07 284.12" style="fill: #A9C46C; transform-origin: 165.265px 288.8px 0px;" id="elv2sc1waz6ir" class="animable"></polygon><g id="elv5i9bg7j12o"><polygon points="173.07 284.12 162.47 283.32 157.46 294.28 173.07 284.12" style="opacity: 0.3; transform-origin: 165.265px 288.8px 0px;" class="animable" id="elartmnrvwkn"></polygon></g><polygon points="162.47 283.32 154.26 234.76 154.46 238.48 157.46 294.28 162.47 283.32" style="fill: #A9C46C; transform-origin: 158.365px 264.52px 0px;" id="el9umck0yv8i" class="animable"></polygon><g id="elbfsf5kau8j8"><polygon points="162.47 283.32 154.26 234.76 154.46 238.48 157.46 294.28 162.47 283.32" style="opacity: 0.1; transform-origin: 158.365px 264.52px 0px;" class="animable" id="elyby062b8uwq"></polygon></g><polygon points="121.25 221.61 127.69 221.27 127.49 217.55 160.71 234.42 154.26 234.76 154.46 238.48 121.25 221.61" style="fill: #A9C46C; transform-origin: 140.98px 228.015px 0px;" id="elxmx613o6e0s" class="animable"></polygon><path d="M143.93,236.54c0,.47-.3.69-.73.47a1.67,1.67,0,0,1-.82-1.26c0-.48.3-.69.73-.48A1.69,1.69,0,0,1,143.93,236.54Z" style="fill: rgb(69, 90, 100); transform-origin: 143.155px 236.142px 0px;" id="elhkzgjm42r7" class="animable"></path><path d="M134,231.58c0,.48-.3.7-.73.48a1.7,1.7,0,0,1-.82-1.26c0-.48.3-.69.73-.48A1.66,1.66,0,0,1,134,231.58Z" style="fill: rgb(69, 90, 100); transform-origin: 133.225px 231.192px 0px;" id="elmqrzi7s3k5g" class="animable"></path><path d="M150,232.59c0,.48-.3.69-.73.47a1.65,1.65,0,0,1-.82-1.26c0-.48.3-.69.73-.47A1.65,1.65,0,0,1,150,232.59Z" style="fill: rgb(69, 90, 100); transform-origin: 149.225px 232.195px 0px;" id="elfp41jq3dfhi" class="animable"></path><path d="M140.13,227.58c0,.48-.3.69-.73.48a1.66,1.66,0,0,1-.82-1.27c0-.48.3-.69.73-.47A1.67,1.67,0,0,1,140.13,227.58Z" style="fill: rgb(69, 90, 100); transform-origin: 139.355px 227.187px 0px;" id="elfkgwwwiwb9" class="animable"></path><polygon points="160.71 234.42 154.26 234.76 162.47 283.32 173.07 284.12 160.71 234.42" style="fill: #A9C46C; transform-origin: 163.665px 259.27px 0px;" id="elbxcuda0lp3h" class="animable"></polygon><g id="elp8q12sakz0s"><polygon points="160.71 234.42 154.26 234.76 162.47 283.32 173.07 284.12 160.71 234.42" style="opacity: 0.2; transform-origin: 163.665px 259.27px 0px;" class="animable" id="elhv1tcjtbheo"></polygon></g><polygon points="127.49 217.55 127.69 221.27 127.89 224.99 129.58 225.84 127.49 217.55" style="fill: #A9C46C; transform-origin: 128.535px 221.695px 0px;" id="elwzany8csq5" class="animable"></polygon><g id="elcstq3b5rksg"><polygon points="127.49 217.55 127.69 221.27 127.89 224.99 129.58 225.84 127.49 217.55" style="opacity: 0.2; transform-origin: 128.535px 221.695px 0px;" class="animable" id="elrymcwz0wue"></polygon></g><path d="M112.56,135.1c4.48-.24,13.55.14,16.87,13,2.8,10.8,10.37,34.44,12.34,44.94,1.5,8,3.56,13.6,3.86,19.18-.56,2.87-2.85,6-9.15,7-6-1.59-4.95-2.58-5.37-7.9s2.32-6.84,1.45-13.15c-1.82-13.25-13.68-40.86-13.68-40.86Z" style="fill: rgb(177, 102, 104); transform-origin: 129.095px 177.139px 0px;" id="el6ng2t4c22vx" class="animable"></path><path d="M149.22,232.67a.48.48,0,0,1-.46-.37c0-.07-1.48-6.56-3.13-11.48-1.3-3.87-4.16-4.74-6.67-5.51-.56-.17-1.09-.33-1.57-.51a.49.49,0,0,1-.27-.62.48.48,0,0,1,.62-.28c.46.18,1,.33,1.5.5,2.6.79,5.84,1.78,7.3,6.12,1.66,5,3.14,11.5,3.15,11.57a.47.47,0,0,1-.36.57Z" style="fill: rgb(38, 50, 56); transform-origin: 143.397px 223.269px 0px;" id="el97hehcaqowm" class="animable"></path><path d="M141.44,206.64a23.91,23.91,0,0,0-2.19,5.89c-.16,1.11-2,.24-2.37-1.2a47.49,47.49,0,0,1-.38-6.93s-.86,4.43-.39,6.54,1,2.53,2.54,3,1.3-.89,1.66-2.65S141.44,206.64,141.44,206.64Z" style="fill: rgb(154, 74, 77); transform-origin: 138.705px 209.217px 0px;" id="el21l5dfovzw7" class="animable"></path><path d="M142.59,235.89,141.9,223c-.14-2.84-.31-6.07-5.1-8.53-1.68-.86-2.92-1.11-3.51-.69s-.44,1.46-.44,1.47l.85,15.82a.48.48,0,0,1-.95,0l-.85-15.77a2.63,2.63,0,0,1,.83-2.34c.93-.67,2.41-.47,4.51.61,5.28,2.72,5.47,6.38,5.61,9.33l.7,12.87a.49.49,0,0,1-.46.51h0A.48.48,0,0,1,142.59,235.89Z" style="fill: rgb(38, 50, 56); transform-origin: 137.71px 224.427px 0px;" id="el0mdprj2emdto" class="animable"></path><path d="M139.35,227.52a.48.48,0,0,1-.46-.37l-2.13-9.64a.48.48,0,0,1,.37-.57.49.49,0,0,1,.57.37l2.12,9.63a.47.47,0,0,1-.36.57Z" style="fill: rgb(38, 50, 56); transform-origin: 138.291px 222.226px 0px;" id="ely0qj5tmhzao" class="animable"></path><path d="M136.12,214.15c-1.81-1.1-5.33-2.71-6.15-1.73s-1.87,5,2.21,6.42a11.73,11.73,0,0,0,8.17-.7Z" style="fill: rgb(154, 74, 77); transform-origin: 134.78px 215.693px 0px;" id="eloj84qwonlxk" class="animable"></path><path d="M106,128.5h-3.91a20,20,0,0,1-20-20h0a21.35,21.35,0,0,1,21.35-21.35h1.25A21.35,21.35,0,0,1,126,108.48h0A20,20,0,0,1,106,128.5Z" style="fill: rgb(38, 50, 56); transform-origin: 104.045px 107.825px 0px;" id="elgt6nrhq6cte" class="animable"></path><path d="M84.86,92.77a2.88,2.88,0,0,1,2.26,3.38L81.48,95A2.88,2.88,0,0,1,84.86,92.77Z" style="fill: rgb(38, 50, 56); transform-origin: 84.3274px 94.432px 0px;" id="elc6eisluqoni" class="animable"></path><path d="M88.54,91.55a2.87,2.87,0,0,1-1.84,3.62L84.92,89.7A2.87,2.87,0,0,1,88.54,91.55Z" style="fill: rgb(38, 50, 56); transform-origin: 86.8009px 92.3646px 0px;" id="elmi731eldwqb" class="animable"></path><path d="M116.75,355c-1.31-1-2.79-1.94-3.94-3-2.55-2.33-3.33-8.23-3.52-10.22a24.36,24.36,0,0,1-.05-5.1c.51-4,3.45-12.79,3.45-12.79s-9.47-6.23-9.61-6.15-1.71,11.45-3.26,13.31c-1.88,1.65-3.49,2.11-4.55,4.29-.93,2.69-.55,4.14.88,6.94a35.79,35.79,0,0,1,2.34,7.56c.81,3.28.47,8.65,8.62,10.29,4.32.87,7.31.29,9.37-.63C118.8,358.47,118.78,356.53,116.75,355Z" style="fill: rgb(177, 102, 104); transform-origin: 106.505px 339.149px 0px;" id="el6yat9cl14tg" class="animable"></path><path d="M95.27,335.35c-.93,2.69-.55,4.14.88,6.94a35.79,35.79,0,0,1,2.34,7.56c.81,3.28.47,8.65,8.62,10.29,4.32.87,7.31.29,9.37-.63,2.32-1,2.3-3,.27-4.51-1-.78-2.16-1.53-3.15-2.33h0c1.08,1.94-4.11,2.4-7.1.61s-6.72-14.4-7.09-17.22a11.77,11.77,0,0,1,.41-5c.11-.15.25-.37.25-.37s-.32-.13-.66.13A12.79,12.79,0,0,0,95.27,335.35Z" style="fill: rgb(38, 50, 56); transform-origin: 106.505px 345.613px 0px;" id="elbaawadb7049" class="animable"></path><path d="M126.74,191.18c1.46,16,5.88,70.88,4.69,81.22-.53,4.69-20.41,56.89-20.41,56.89s-4.85,1.49-9.42-3.69c2.36-22.44,4.62-46.48,9.52-53.93-.93-7.72-10.56-46.18-10.56-46.18Z" style="fill: rgb(55, 71, 79); transform-origin: 116.096px 260.334px 0px;" id="el2drzte2jwfo" class="animable"></path><path d="M90.87,347.16v-1.41c.56,1.65,3.15,8.79,7.07,12.36,3.11,2.85,7.36,6.13,8.44,9.3s-5.91,4.4-8.82,3.88c-3.39-.59-7.76-2.51-10.14-5.44-1.68-2.06-2.75-4.5-3.94-6.12s-4-3.42-4.6-5.29c-.36-1,.07-3.29.56-5.19s1-3.67,1.56-3.5v1.07c.71.8,2.7,1.59,4.93,1.67C87.38,348.55,90.89,348.26,90.87,347.16Z" style="fill: rgb(38, 50, 56); transform-origin: 92.6195px 358.572px 0px;" id="elpar72he15a" class="animable"></path><path d="M100.76,360.61c-1-.86-1.94-1.7-2.82-2.51-2.74-2.49-4.83-6.73-6-9.62a13.63,13.63,0,0,1-1-5.2v-5.63H81v9.16h0v.24l0,0c.47,2.05,5,7.51,7.58,11.07,1.73,2.39,5,5.42,8.93,5.95C101.27,364.6,103.17,363.43,100.76,360.61Z" style="fill: rgb(177, 102, 104); transform-origin: 91.4159px 350.922px 0px;" id="elt030el1bh6j" class="animable"></path><path d="M83,193.63c-7.66,16.73.28,75.65.28,75.65-.23,2.72-3.34,8.06-4.49,20-1.37,14.11,2.14,49.56,2.14,49.56a10.67,10.67,0,0,0,10,.39s9.42-53.38,11.19-67.41c1.54-12.25,5.78-49.93,5.78-49.93l18.9-30.72Z" style="fill: rgb(55, 71, 79); transform-origin: 102.636px 265.729px 0px;" id="el4uhei7l2gjc" class="animable"></path><path d="M99.29,135.3,89,135.79c-1.41.44-5.2,4-6.69,9.45A24.16,24.16,0,0,0,83,158.78l6.84,19.79s-3.2,7.75-6.92,15.06c17.17,9.59,38.61,4.55,43.78-2.45.21-1.48-.08-8.17.33-15.77.45-8.12,1.56-17.28.29-22.29-2.37-9.31-6.81-18.05-15.64-18.05Z" style="fill: #A9C46C; transform-origin: 104.782px 166.999px 0px;" id="eldv96zon1649" class="animable"></path><path d="M118.76,96c2.32,1.37,5.19,7.21,4.91,19.45-.24,10.37-3.61,12.93-5.29,13.67s-4.95.29-8.11-.24v6.23s4.37,5.08,4.1,7.93-6.32,3.53-10.41.74a26.27,26.27,0,0,1-6.72-7V123a6.27,6.27,0,0,1-5.63-.72C88.09,120,88,114.19,90,112.13s6.41-1.41,7.23,1.44c0,0,5.05.18,11.77-3.51A18.9,18.9,0,0,0,118.76,96Z" style="fill: rgb(177, 102, 104); transform-origin: 106.187px 120.779px 0px;" id="elgn92t2gm1rt" class="animable"></path><path d="M112.53,113a1.31,1.31,0,1,1-1.37-1.29A1.33,1.33,0,0,1,112.53,113Z" style="fill: rgb(38, 50, 56); transform-origin: 111.22px 113.019px 0px;" id="el29589xg2s2b" class="animable"></path><path d="M112.43,121.66l3,1a1.56,1.56,0,0,1-2,1.09A1.67,1.67,0,0,1,112.43,121.66Z" style="fill: rgb(154, 74, 77); transform-origin: 113.887px 122.744px 0px;" id="el52lrjhvvtgg" class="animable"></path><path d="M122.78,108.86,120.14,107a1.54,1.54,0,0,1,2.19-.45A1.69,1.69,0,0,1,122.78,108.86Z" style="fill: rgb(38, 50, 56); transform-origin: 121.597px 107.566px 0px;" id="elh0bowmgdu8g" class="animable"></path><path d="M122.4,112.78a1.31,1.31,0,1,1-1.37-1.29A1.34,1.34,0,0,1,122.4,112.78Z" style="fill: rgb(38, 50, 56); transform-origin: 121.09px 112.799px 0px;" id="el7qhedz08jja" class="animable"></path><polygon points="116.02 111.17 116.23 119.03 120.36 117.75 116.02 111.17" style="fill: rgb(154, 74, 77); transform-origin: 118.19px 115.1px 0px;" id="el080ka972i56e" class="animable"></polygon><path d="M110.27,128.9c-3.34-.43-10.2-2.41-11.27-5.12a7,7,0,0,0,2.41,3.46c2,1.76,8.86,3.74,8.86,3.74Z" style="fill: rgb(154, 74, 77); transform-origin: 104.635px 127.38px 0px;" id="el745okwr28uj" class="animable"></path><path d="M108.19,257.26l-2.94-12.58,2.59-22.78s8.15-3.07,12.47-9.38a25.87,25.87,0,0,1-9.25,11.36l-4.44,20.74Z" style="fill: rgb(38, 50, 56); transform-origin: 112.78px 234.89px 0px;" id="elykmnr1es52" class="animable"></path><polygon points="100.35 232.77 64.6 212.13 57.45 272.33 93.2 292.97 100.35 232.77" style="fill: #A9C46C; transform-origin: 78.9px 252.55px 0px;" id="el160fzbfo63mg" class="animable"></polygon><g id="elslf933h6r4"><polygon points="100.35 232.77 64.6 212.13 57.45 272.33 93.2 292.97 100.35 232.77" style="fill: rgb(255, 255, 255); opacity: 0.5; transform-origin: 78.9px 252.55px 0px;" class="animable" id="elnsxlqkzwbuh"></polygon></g><polygon points="111.07 282.65 100.35 280.58 93.2 292.97 111.07 282.65" style="fill: #A9C46C; transform-origin: 102.135px 286.775px 0px;" id="ellnaym7kxuxc" class="animable"></polygon><g id="el1v3es6gq5ms"><polygon points="111.07 282.65 100.35 280.58 93.2 292.97 111.07 282.65" style="opacity: 0.3; transform-origin: 102.135px 286.775px 0px;" class="animable" id="eldi2fhyj5apo"></polygon></g><polygon points="100.35 280.58 103.92 226.58 100.35 232.77 93.2 292.97 100.35 280.58" style="fill: #A9C46C; transform-origin: 98.56px 259.775px 0px;" id="elvcgaeoqyxfh" class="animable"></polygon><g id="elhho015i8gs"><polygon points="100.35 280.58 103.92 226.58 100.35 232.77 93.2 292.97 100.35 280.58" style="opacity: 0.1; transform-origin: 98.56px 259.775px 0px;" class="animable" id="elaghnhhdsz4q"></polygon></g><polygon points="64.6 212.13 75.32 210.07 75.32 205.94 111.07 226.58 103.92 226.58 100.35 232.77 64.6 212.13" style="fill: #A9C46C; transform-origin: 87.835px 219.355px 0px;" id="elyjupcqma6q" class="animable"></polygon><path d="M87.22,232.18c0,.53-.38.74-.84.48a1.86,1.86,0,0,1-.83-1.45c0-.53.37-.75.83-.48A1.85,1.85,0,0,1,87.22,232.18Z" style="fill: rgb(69, 90, 100); transform-origin: 86.385px 231.693px 0px;" id="el9mty1qqait" class="animable"></path><path d="M76.74,225.52c0,.54-.37.75-.84.49a1.86,1.86,0,0,1-.83-1.45c0-.53.37-.75.83-.48A1.81,1.81,0,0,1,76.74,225.52Z" style="fill: rgb(69, 90, 100); transform-origin: 75.905px 225.043px 0px;" id="elorofftm77b" class="animable"></path><path d="M98.32,225c0,.53-.37.75-.83.48a1.84,1.84,0,0,1-.84-1.44c0-.54.38-.75.84-.49A1.86,1.86,0,0,1,98.32,225Z" style="fill: rgb(69, 90, 100); transform-origin: 97.485px 224.517px 0px;" id="elfl4jrzws7fe" class="animable"></path><path d="M87.72,219.08c0,.53-.38.75-.84.48a1.83,1.83,0,0,1-.83-1.44c0-.53.37-.75.83-.48A1.84,1.84,0,0,1,87.72,219.08Z" style="fill: rgb(69, 90, 100); transform-origin: 86.885px 218.6px 0px;" id="ele36j5xr0kzw" class="animable"></path><polygon points="111.07 226.58 103.92 226.58 100.35 280.58 111.07 282.65 111.07 226.58" style="fill: #A9C46C; transform-origin: 105.71px 254.615px 0px;" id="el17xg8fmljac" class="animable"></polygon><polygon points="75.32 210.07 75.32 218.32 64.6 212.13 75.32 210.07" style="fill: #A9C46C; transform-origin: 69.96px 214.195px 0px;" id="el6hrvtpxeqzt" class="animable"></polygon><g id="eli3mw2xmi16r"><polygon points="111.07 226.58 103.92 226.58 100.35 280.58 111.07 282.65 111.07 226.58" style="opacity: 0.2; transform-origin: 105.71px 254.615px 0px;" class="animable" id="elwyk6o3ph5am"></polygon></g><g id="elryc0mfeu53h"><polygon points="75.32 210.07 75.32 218.32 64.6 212.13 75.32 210.07" style="opacity: 0.2; transform-origin: 69.96px 214.195px 0px;" class="animable" id="elyie4dq8zwqp"></polygon></g><path d="M75.9,225.36a.43.43,0,0,1-.19,0,.52.52,0,0,1-.27-.66l9.1-21.53a.51.51,0,0,1,.66-.27.52.52,0,0,1,.27.66l-9.1,21.53A.52.52,0,0,1,75.9,225.36Z" style="fill: rgb(38, 50, 56); transform-origin: 80.455px 214.117px 0px;" id="elvrek2dpiwgk" class="animable"></path><path d="M86.88,219a.5.5,0,0,1-.5-.5V203.6a.5.5,0,0,1,1,0v14.91A.5.5,0,0,1,86.88,219Z" style="fill: rgb(38, 50, 56); transform-origin: 86.88px 211.05px 0px;" id="elw5ase1wk70f" class="animable"></path><path d="M70,180.48l13.87-19.41a20.4,20.4,0,0,0,4.86-7.93c2.42-7.67,2.8-12.17.26-17.35-5.64,0-8.94.57-15.35,11.42-5.23,8.85-13,23.94-14.9,27.2-2.37,4-3.06,5.11-1,9.07s9.82,14.13,16.35,21.78,10.35,10.23,15.23,11.36,7.06.18,9.81-2.35.81-4.78-1.75-5.37a21,21,0,0,1-6.84-2.81c-1.55-1.12-2-2-.59-2.06,1.86-.08,3.6-.45,4.08-1.75.6-1.63-.94-1.19-3.07-1.85a40.86,40.86,0,0,0-8.45-1.62C79,199,70,180.48,70,180.48" style="fill: rgb(177, 102, 104); transform-origin: 78.494px 176.44px 0px;" id="el3t5351ze66e" class="animable"></path><path d="M95.87,125.85h1.37a0,0,0,0,1,0,0v13a9.49,9.49,0,0,1-9.49,9.49H86.38a0,0,0,0,1,0,0v-13A9.49,9.49,0,0,1,95.87,125.85Z" style="fill: rgb(38, 50, 56); transform-origin: 91.81px 137.095px 0px;" id="elt2c9lyqogys" class="animable"></path><path d="M97,224.38V213.09c0-1.65-.49-4.28-1.84-4.77a.5.5,0,1,1,.34-.94c2.43.89,2.5,5.22,2.5,5.71v11.29a.5.5,0,0,1-.5.5h0A.5.5,0,0,1,97,224.38Z" style="fill: rgb(38, 50, 56); transform-origin: 96.4084px 216.113px 0px;" id="el2hbzrj7ckz4" class="animable"></path><path d="M86.51,232.13a.63.63,0,0,1-.19,0,.5.5,0,0,1-.27-.66c0-.06,2.45-5.82,5.34-14.08,2.81-8,1.82-9.6,1.26-9.9a.5.5,0,0,1-.2-.68.51.51,0,0,1,.68-.2c1.77,1,1.52,4.49-.79,11.11C89.44,226,87,231.77,87,231.83A.49.49,0,0,1,86.51,232.13Z" style="fill: rgb(38, 50, 56); transform-origin: 90.1497px 219.344px 0px;" id="el1gb5ohshs6n" class="animable"></path></g></g><defs>     <filter id="active" height="200%">         <feMorphology in="SourceAlpha" result="DILATED" operator="dilate" radius="2"></feMorphology>                <feFlood flood-color="#32DFEC" flood-opacity="1" result="PINK"></feFlood>        <feComposite in="PINK" in2="DILATED" operator="in" result="OUTLINE"></feComposite>        <feMerge>            <feMergeNode in="OUTLINE"></feMergeNode>            <feMergeNode in="SourceGraphic"></feMergeNode>        </feMerge>    </filter>    <filter id="hover" height="200%">        <feMorphology in="SourceAlpha" result="DILATED" operator="dilate" radius="2"></feMorphology>                <feFlood flood-color="#ff0000" flood-opacity="0.5" result="PINK"></feFlood>        <feComposite in="PINK" in2="DILATED" operator="in" result="OUTLINE"></feComposite>        <feMerge>            <feMergeNode in="OUTLINE"></feMergeNode>            <feMergeNode in="SourceGraphic"></feMergeNode>        </feMerge>            <feColorMatrix type="matrix" values="0   0   0   0   0                0   1   0   0   0                0   0   0   0   0                0   0   0   1   0 "></feColorMatrix>    </filter></defs><defs><clipPath id="freepik--clip-path--inject-7"><path d="M449.07,232.91v16.37c0,1.23-.86,1.72-1.92,1.11L425.76,238a4.24,4.24,0,0,1-1.92-3.32V218.34c0-1.22.86-1.72,1.92-1.11l21.39,12.35A4.24,4.24,0,0,1,449.07,232.91Z" style="fill:#455a64"></path></clipPath></defs></svg>